<svg xmlns="http://www.w3.org/2000/svg" version="1.1" xmlns:xlink="http://www.w3.org/1999/xlink" width="1500" height="1500" viewBox="0 0 1500 1500"><rect width="1500" height="1500" x="0" y="0" id="background" stroke="transparent" fill="#080808"></rect><svg xml:space="preserve" width="1000" height="1000" data-version="2" data-id="lg_Op92QcV8oDnHEdxGeZ" viewBox="0 0 558 298" x="250" y="250"><rect width="100%" height="100%" fill="transparent"></rect><path fill="#ededed" d="M72.935 264.048q2.07 2.99 2.07 7.21 0 4.21-.58 7.28-.57 3.07-1.57 5.83-2.3 6.05-5.82 8.04H5.395q6.06-3.75 7.9-6.51 3.52-5.21 3.52-13.49-.07-20.4-.07-36.88v-40.17q0-11.11-3.68-16.33-1.3-1.91-3.22-3.91h31.51q-4.53 6.52-5.14 13.42-.15 2.3-.15 5.06v70.22q0 14.34 1.53 17.13 1.53 2.8 3.68 3.3 2.15.5 6.52.5 4.37 0 8.27-1.53 3.91-1.54 6.98-4.3 5.21-4.75 9.89-14.87"></path><rect width="69.61" height="117.29" x="-34.8" y="-58.65" fill="none" rx="0" ry="0" transform="translate(40.7 234.26)"></rect><path fill="#ededed" d="M111.805 175.118q-2.84 7.13-3.3 14.3-.46 7.17-.69 12.31-.23 5.13-.38 10.65-.23 12.88-.23 23.46 0 43.39 3.22 53.2.53 1.69 1.38 3.37h-26.45q2.38-5.21 2.84-9.42.46-4.22.84-10.05.92-12.03.92-27.75 0-15.71-.08-21.5-.07-5.79-.23-11.31-.53-26.91-3.22-34.19l-1.07-3.07Z"></path><rect width="26.45" height="117.29" x="-13.22" y="-58.65" fill="none" rx="0" ry="0" transform="translate(99.08 234.26)"></rect><path fill="#ededed" d="M150.665 175.118q-1.3 4.22-1.3 7.98 0 6.36 2.22 18.4 9.36 46.99 10.89 54.27 3.22 15.03 3.95 18.21.73 3.18 1.34 6.09 14.26-16.94 19.7-46.22 1.99-10.74 1.99-20.24 0-9.51-.38-14.72-.38-5.21-1.3-9.51-1.84-8.58-5.83-14.33h26.76q-1.61 4.6-1.69 9.2-.08 4.6-.31 13.99-.23 9.39-2.37 22.34-2.15 12.96-5.37 23.16-3.22 10.19-7.13 17.93-3.91 7.75-7.82 13.57-3.91 5.83-7.44 9.97l-5.98 7.2h-24.14q1.15-2.91 1.15-5.67 0-4.52-1.23-13.26-13.11-87.55-22.46-98.36Z"></path><rect width="84.79" height="117.36" x="-42.4" y="-58.68" fill="none" rx="0" ry="0" transform="translate(166.81 234.23)"></rect><path fill="#ededed" d="M280.305 264.048q2.07 2.84 2.07 8.2 0 5.37-.46 8.55-.46 3.18-1.46 5.79-2.3 5.82-6.06 5.82h-62.09q5.9-3.14 7.82-6.05 3.6-5.44 3.6-13.8-.08-20.47-.08-37.03v-40.32q0-11.42-3.6-16.56-1.38-1.84-3.3-3.53h57.65q5.22 1.84 7.13 12.88.54 3.07.54 5.98 0 5.98-1.76 9.51l-4.14-8.28q-4.14-8.13-11.89-10.89-4.29-1.53-9.66-1.53-5.36 0-7.66.35-2.3.34-3.53 1.64-1.99 2.23-1.99 8.47 0 6.25.31 8.67.3 2.41 1.45 3.95 2.38 2.99 10.04 2.99h24.08q-1.77 4.44-3.61 6.28-3.68 3.68-9.96 3.68-2.46 0-4.68-.54-4.14-.99-7.28-.99-3.15 0-5.18.57-2.03.58-3.18 1.8-1.99 2.15-1.99 7.75v36.56q0 14.42 1.61 17.1 1.61 2.68 3.91 3.18t7.66.5q5.37 0 9.74-1.53 4.37-1.54 7.32-4.3t4.87-6.55q1.92-3.8 3.76-8.32"></path><rect width="70.07" height="117.29" x="-35.03" y="-58.65" fill="none" rx="0" ry="0" transform="translate(247.84 234.26)"></rect><path fill="#ededed" d="M357.955 169.758q2.23 3.14 2.23 9.62 0 6.48-.43 10.5-.42 4.03-1.26 7.78-1.84 8.44-5.14 12.73-2.83-14.8-7.36-21.16-4.75-6.44-12.38-6.44-7.62 0-11.92 2.91-4.29 2.92-6.59 7.67-3.83 7.9-3.83 23.27t3.48 28.13q3.49 12.76 9.93 21.96 13.57 19.55 35.34 19.55-.3 3.45-3.6 5.98-1 .77-2.15.92-27.82 0-45.38-20.47-18.63-21.77-18.63-59.33 0-19.63 11.5-29.52 10.2-8.74 27.9-8.74l12.81.16q9.04 0 12.72-2.61 1.54-1.15 2.76-2.91"></path><rect width="69.92" height="123.42" x="-34.96" y="-61.71" fill="none" rx="0" ry="0" transform="translate(325.73 231.97)"></rect><path fill="#ededed" d="m429.785 246.798-.07-21q0-4.3-1.38-5.83-2.53-2.84-9.36-2.84h-12.11q-9.5 0-10.42 5.37-.23 1.53-.23 3.3l-.08 23q0 29.74 3.07 37.25 1.22 2.92 3.83 6.36h-28.75q2.45-5.82 2.88-9.73.42-3.91.88-9.66.84-12.04.84-27.52 0-15.49-.08-21.35-.07-5.87-.15-11.46-.54-23.23-1.46-27.87-.92-4.64-1.53-6.25l-1.38-3.45h28.75q-5.52 6.14-6.13 16.56-.23 3.15-.23 6.6 0 3.45.65 5.4.65 1.96 2.18 2.88 2.07 1.38 9.74 1.38h7.28q7.82 0 9.66-1.15 3.07-2 3.07-8.67 0-16.33-6.44-23h28.74q-2.3 5.06-2.79 9.36-.5 4.29-.73 8.24-.23 3.95-.46 9.16t-.39 10.81q-.23 13.03-.23 23.61 0 43.01 3.22 52.67.54 1.61 1.38 3.44h-28.74q3.83-5.13 4.67-8.85.85-3.72 1.31-8.78.99-9.73.99-27.98"></path><rect width="77.27" height="117.29" x="-38.63" y="-58.65" fill="none" rx="0" ry="0" transform="translate(413.42 234.26)"></rect><path fill="#ededed" d="M511.045 286.278q14.72 0 19.01-35.87 1.46-12.12 1.46-28.52 0-40.63-20.62-40.63t-20.62 40.63q0 47.91 12.34 60.48 3.83 3.91 8.43 3.91m-.15 7.67q-20.39 0-30.74-19.17-9.97-18.47-9.97-52.89 0-35.8 22-45.08 7.75-3.22 18.71-3.22 31.43 0 38.41 27.91 2.3 8.97 2.3 23.07 0 14.11-2.46 27.48-2.45 13.38-7.51 22.73-10.35 19.17-30.74 19.17"></path><rect width="81.42" height="120.36" x="-40.71" y="-60.18" fill="none" rx="0" ry="0" transform="translate(511.4 234.27)"></rect><path fill="#ededed" d="M342.13 3.37c-.265-.399-.796-.399-1.327-.133L282.796 41.2c-.266.133-.398.531-.398.93 0 .398.265.663.53.796l15.531 7.433-51.901 37.168-13.009-8.363c-.265-.133-.53-.133-.796-.133-.266.133-.531.398-.531.664l-9.292 33.583c-.133.266 0 .664.133.797.265.265.53.398.796.398h.133l54.158-4.248c.398 0 .796-.265.796-.664.133-.398 0-.796-.398-1.062l-16.592-11.017 65.44-47.654c.266-.265.399-.53.399-.929 0-.398-.266-.663-.531-.796l-19.38-8.496L342.13 4.564c.398-.265.398-.796 0-1.195m-36.503 35.84c-.265.265-.265.53-.265.796 0 .265.265.53.53.663l19.115 8.496-65.175 47.52c-.266.133-.399.532-.399.797 0 .266.133.664.399.797l15.398 10.22-50.043 3.983 8.362-31.061 12.478 7.964c.265.265.796.265 1.062 0l53.76-38.495c.265-.132.398-.53.398-.796 0-.398-.266-.664-.531-.797l-15.398-7.433 49.38-32.256z"></path></svg></svg>